<?xml version="1.0" encoding="UTF-8" standalone="no"?>
<!-- Created with Inkscape (http://www.inkscape.org/) -->

<svg
   xmlns:dc="http://purl.org/dc/elements/1.1/"
   xmlns:cc="http://creativecommons.org/ns#"
   xmlns:rdf="http://www.w3.org/1999/02/22-rdf-syntax-ns#"
   xmlns:svg="http://www.w3.org/2000/svg"
   xmlns="http://www.w3.org/2000/svg"
   xmlns:sodipodi="http://sodipodi.sourceforge.net/DTD/sodipodi-0.dtd"
   xmlns:inkscape="http://www.inkscape.org/namespaces/inkscape"
   id="svg2"
   version="1.1"
   inkscape:version="0.91 r13725"
   width="300"
   height="300"
   viewBox="0 0 300 300"
   sodipodi:docname="swallow.svg">
  <metadata
     id="metadata8">
    <rdf:RDF>
      <cc:Work
         rdf:about="">
        <dc:format>image/svg+xml</dc:format>
        <dc:type
           rdf:resource="http://purl.org/dc/dcmitype/StillImage" />
        <dc:title></dc:title>
      </cc:Work>
    </rdf:RDF>
  </metadata>
  <defs
     id="defs6" />
  <sodipodi:namedview
     pagecolor="#ffffff"
     bordercolor="#666666"
     borderopacity="1"
     objecttolerance="10"
     gridtolerance="10"
     guidetolerance="10"
     inkscape:pageopacity="0"
     inkscape:pageshadow="2"
     inkscape:window-width="1920"
     inkscape:window-height="1103"
     id="namedview4"
     showgrid="false"
     inkscape:zoom="1.2486772"
     inkscape:cx="-4.2457679"
     inkscape:cy="89.694912"
     inkscape:window-x="0"
     inkscape:window-y="27"
     inkscape:window-maximized="1"
     inkscape:current-layer="svg2" />
  <path
     style="fill:#782121"
     d="m 140.04288,241.09745 c 0.023,-2.17626 8.04613,-15.83136 8.96728,-15.26205 0.48472,0.29957 1.20693,0.0178 1.60491,-0.62615 0.45192,-0.73122 0.29014,-0.90292 -0.4309,-0.45729 -0.63498,0.39244 -1.15451,0.26352 -1.15451,-0.28648 0,-1.00132 1.91336,-2.57393 3.16667,-2.60272 0.36666,-0.008 1.04166,-0.42496 1.5,-0.92564 0.48416,-0.52889 0.30957,-0.60891 -0.41667,-0.19098 -2.22822,1.28228 -1.33531,-0.60337 2.86185,-6.04366 5.02253,-6.51014 4.70107,-8.24477 -1.45102,-7.83 -3.07764,0.20748 -6.24849,1.42913 -10.09349,3.88875 -5.95963,3.81232 -7.11617,4.28326 -5.97185,2.43171 0.44563,-0.72104 0.27393,-0.88282 -0.45729,-0.4309 -0.64395,0.39798 -0.93568,1.10408 -0.64828,1.5691 0.70492,1.14058 -6.4005,5.44865 -8.70082,5.27538 -1.00778,-0.0759 -1.5948,0.2463 -1.30448,0.71604 0.29031,0.46974 -1.16246,1.87765 -3.22839,3.12869 -2.06593,1.25105 -4.73308,2.89288 -5.92701,3.64851 -1.91086,1.20939 -2.1419,1.17716 -1.92963,-0.26918 0.31022,-2.11365 2.49849,-3.45947 4.42377,-2.72067 0.92525,0.35505 1.2466,0.15976 0.83445,-0.50711 -0.37948,-0.61402 0.95932,-2.06613 3.08596,-3.34712 6.13899,-3.69786 19.84628,-13.69286 25.67426,-18.72101 5.19066,-4.4783 13.96936,-16.21775 17.95216,-24.00682 l 1.8702,-3.65749 -4.84282,-4.26146 c -2.66354,-2.3438 -5.32393,-4.26145 -5.91198,-4.26145 -0.58805,0 -3.05656,-2.025 -5.48559,-4.5 -2.42903,-2.475 -4.95049,-4.5 -5.60325,-4.5 -0.65276,0 -2.24656,-1.11723 -3.54179,-2.48272 -1.29523,-1.3655 -3.07966,-2.4905 -3.96541,-2.5 -0.88575,-0.01 -3.27447,-1.14651 -5.30826,-2.52667 -2.03378,-1.38017 -5.47158,-3.41432 -7.63954,-4.52033 -2.16796,-1.10601 -3.94175,-2.39719 -3.94175,-2.86928 0,-0.4721 -1.36525,-1.42387 -3.0339,-2.11504 -1.66864,-0.69117 -3.81469,-2.2493 -4.76899,-3.46251 -0.95431,-1.2132 -2.85156,-2.80032 -4.21611,-3.52693 -2.6893,-1.43202 -8.7835,-6.12797 -12.699547,-9.78578 -3.57419,-3.3385 -11.44719,-7.44662 -22.53145,-11.75689 -5.55184,-2.15891 -9.75,-4.36462 -9.75,-5.12264 0,-0.73216 0.65335,-1.33121 1.45188,-1.33121 2.17313,0 16.34015,5.04063 31.548117,11.22484 7.425,3.01932 21.375,8.26922 31,11.66644 9.625,3.39722 18.4,6.57645 19.5,7.06495 1.1,0.4885 3.35,1.17935 5,1.53523 3.899,0.84095 21.39908,9.10723 23.7123,11.20067 1.43705,1.30051 1.79164,1.34227 1.80781,0.21286 0.0111,-0.77275 0.41543,-4.13654 0.89862,-7.4751 0.53907,-3.72475 0.50139,-7.78173 -0.0975,-10.5 -1.61309,-7.32094 -4.04825,-23.12658 -4.30317,-27.92989 -0.57032,-10.745907 -1.71979,-21.400383 -2.54217,-23.563408 -1.12555,-2.960428 -1.5781,-10.167708 -0.69396,-11.051848 0.36836,-0.36836 1.46811,-0.0648 2.4439,0.67453 1.51266,1.14613 1.58992,1.13766 0.52417,-0.0575 -1.92191,-2.15527 -1.54054,-5.00178 0.67012,-5.00178 2.95502,0 12.35678,11.296182 17.40305,20.909689 2.48005,4.72467 6.08028,13.12678 8.00051,18.671357 1.92023,5.54458 4.43295,11.83791 5.58383,13.98519 1.56335,2.91688 2.06257,5.55157 1.97418,10.41895 -0.09,4.95744 -0.29153,5.79766 -0.84291,3.51481 -0.59454,-2.46154 -0.86174,-2.6859 -1.48868,-1.25 -0.42024,0.9625 -0.51621,2.39593 -0.21327,3.18539 0.30295,0.78947 0.19926,1.57697 -0.23043,1.75 -1.39833,0.56311 -7.08357,9.04253 -6.59395,9.83475 0.26183,0.42366 -0.19635,1.02832 -1.01819,1.34369 -0.82184,0.31537 -1.49426,0.19473 -1.49426,-0.2681 0,-2.0573 4.14389,-9.93697 5.49936,-10.45711 0.92993,-0.35685 1.50064,-1.87818 1.50064,-4.00025 0,-2.16838 0.56769,-3.64224 1.54776,-4.01833 1.1967,-0.45921 1.39479,-1.44746 0.87334,-4.35698 -0.37093,-2.06969 -1.23199,-4.43806 -1.91345,-5.26306 -0.68147,-0.825 -1.53766,-2.7559 -1.90266,-4.2909 -0.36499,-1.53499 -1.03239,-2.56299 -1.48311,-2.28443 -0.45071,0.27856 -0.85602,-0.77868 -0.90068,-2.34941 -0.10896,-3.83236 -5.21464,-15.623907 -10.80923,-24.963907 -5.05056,-8.431747 -11.59645,-16.532799 -10.75309,-13.307799 0.60992,2.332351 -1.23126,3.796237 -2.96497,2.357384 -0.90459,-0.75074 -0.77226,2.382819 0.51366,12.163905 0.95268,7.24634 1.97175,16.775157 2.26459,21.175157 0.49896,7.49678 0.94987,10.50189 3.56363,23.75 0.74566,3.77946 0.69593,7.83999 -0.17753,14.49657 -1.19712,9.12308 -1.18191,9.28002 1.13852,11.75 1.29352,1.37689 1.88912,2.50343 1.32356,2.50343 -0.94071,0 -2.121,-1.07743 -8.49423,-7.75394 -1.18335,-1.23967 -2.35919,-2.04631 -2.61297,-1.79253 -0.25379,0.25378 -1.19306,-0.35958 -2.08728,-1.36303 -1.88895,-2.11968 -13.02787,-6.81108 -18.12586,-7.6341 -1.925,-0.31077 -4.49895,-1.21709 -5.71989,-2.01405 -1.85946,-1.21373 -2.13267,-1.22171 -1.68271,-0.0491 0.29544,0.76993 3.31939,2.88043 6.71989,4.69001 3.40049,1.80958 6.77735,3.88114 7.50414,4.60346 0.72678,0.72233 1.65443,1.31332 2.06144,1.31332 1.4906,0 5.11622,4.12717 5.08545,5.78895 -0.0245,1.3227 -0.47241,1.12113 -1.97355,-0.88814 -1.06802,-1.42955 -5.15509,-4.57955 -9.08236,-7 -3.92728,-2.42044 -8.32668,-5.35 -9.77646,-6.51012 -3.75761,-3.00686 -7.75118,-4.92098 -18.33618,-8.78853 -5.11488,-1.86887 -13.90933,-5.20882 -19.54324,-7.42211 -8.61206,-3.38326 -10.08159,-3.72169 -9.22708,-2.12502 0.55901,1.04452 2.01461,2.43337 3.23465,3.08631 1.22005,0.65295 3.4945,2.46342 5.05435,4.02326 1.55984,1.55984 3.91018,3.10566 5.22298,3.43515 1.31279,0.32949 2.6381,1.39054 2.94512,2.35789 0.30703,0.96734 2.32165,2.554 4.47694,3.5259 2.15529,0.9719 4.15063,2.37148 4.4341,3.11017 0.28346,0.7387 2.21633,2.05379 4.29525,2.92242 2.07893,0.86863 4.68601,2.42449 5.79351,3.45747 1.10751,1.03298 3.36365,2.20454 5.01365,2.60346 1.65,0.39893 4.07386,1.78229 5.38636,3.07413 1.3125,1.29185 2.8875,2.37089 3.5,2.39787 0.6125,0.027 2.91364,1.82377 5.11364,3.99287 2.2,2.1691 4.40148,3.94703 4.89219,3.95095 0.4907,0.004 3.2359,2.00942 6.10044,4.45667 3.61274,3.08646 5.52753,4.13029 6.25045,3.40737 0.72292,-0.72292 0.61745,-1.85626 -0.34428,-3.69956 -0.76256,-1.46155 -1.38925,-3.4183 -1.39264,-4.34834 -0.003,-0.93004 -0.40184,-1.93553 -0.88545,-2.23442 -1.22642,-0.75797 -2.12248,-4.5746 -1.07401,-4.5746 0.47271,0 1.58311,1.6875 2.46756,3.75 0.88445,2.0625 2.25557,5.02397 3.04692,6.58104 1.61662,3.18089 1.87021,5.66896 0.57778,5.66896 -0.47357,0 -1.93607,2.1375 -3.25,4.75 -1.31393,2.6125 -2.93223,5.43919 -3.59623,6.28152 -0.94576,1.19978 -0.92797,2.34397 0.0821,5.28213 0.70917,2.06283 1.81494,4.27614 2.45727,4.91847 2.05426,2.05426 1.40916,3.97555 -1.08212,3.22287 -1.2375,-0.37388 -2.64233,-1.04404 -3.12186,-1.48924 -1.20398,-1.11782 -3.76763,-4.6e-4 -2.96789,1.29354 0.37885,0.61299 0.16843,0.75286 -0.50574,0.3362 -0.63496,-0.39244 -1.15449,-0.18882 -1.15449,0.45248 0,0.6413 -0.63272,0.92321 -1.40604,0.62646 -0.77333,-0.29675 -2.23583,0.4426 -3.25,1.64301 l -1.84396,2.18256 2.5,-2 2.5,-2 -1.88365,2.22642 c -1.036,1.22453 -2.1872,2.03881 -2.55821,1.80951 -0.37102,-0.2293 -1.99837,0.66484 -3.61636,1.98698 l -2.94178,2.40388 3.5,-1.04434 c 1.925,-0.5744 4.35787,-1.30381 5.40637,-1.62092 1.19293,-0.3608 1.66288,-0.1826 1.25575,0.47616 -0.7358,1.19054 2.03292,2.56882 3.42812,1.70654 0.50037,-0.30925 0.90976,-0.0155 0.90976,0.65285 0,0.66831 2.19522,-1.07447 4.87827,-3.87284 3.65489,-3.81198 5.84924,-5.25065 8.75,-5.73674 4.96763,-0.83244 15.66311,-4.93658 21.12173,-8.10496 4.11307,-2.38737 5.50614,-4.38254 3.05998,-4.38254 -2.11893,0 -8.93809,-8.35792 -8.42832,-10.33019 0.26017,-1.0066 -0.16621,-3.64201 -0.94752,-5.85648 -0.78131,-2.21446 -1.21841,-4.35337 -0.97134,-4.75314 0.24707,-0.39977 -0.20598,-0.72686 -1.00679,-0.72686 -0.8008,0 -1.45601,0.6 -1.45601,1.33334 0,0.73333 -0.36033,1.33333 -0.80073,1.33333 -0.44041,0 -1.7784,2.01232 -2.97331,4.47181 -1.19492,2.4595 -3.53459,6.35202 -5.19927,8.65004 -1.66468,2.29803 -3.02669,4.81227 -3.02669,5.58721 0,0.77493 -0.43281,1.14149 -0.96179,0.81456 -1.25542,-0.7759 0.37392,-5.0641 3.46298,-9.11407 3.20429,-4.20104 8.42652,-15.13607 7.63659,-15.99056 -0.35078,-0.37944 0.44295,-0.1266 1.76385,0.56189 2.09578,1.09237 2.32264,1.04594 1.78139,-0.36455 -0.92047,-2.39869 1.06565,-1.95857 3.88516,0.86094 1.3625,1.3625 2.7033,2.45375 2.97955,2.425 1.66786,-0.17358 2.47424,0.8769 1.87396,2.4412 -0.51856,1.35135 -1.35019,1.65324 -3.30723,1.20054 -1.43795,-0.33262 -2.12002,-0.25359 -1.51571,0.17561 0.60431,0.42921 1.13839,1.45538 1.18686,2.28038 0.2726,4.64056 1.13309,7.39877 3.1661,10.14856 1.97588,2.67251 2.7238,3.0035 5.69671,2.52107 1.88221,-0.30544 5.92044,-1.69908 8.97384,-3.09697 4.86042,-2.22517 5.37034,-2.72292 4.09552,-3.99774 -0.85651,-0.85651 -2.36836,-1.21755 -3.67148,-0.87678 -1.67904,0.43908 -1.89229,0.78976 -0.88083,1.44851 0.83572,0.5443 -0.0462,0.7101 -2.35958,0.4436 -2.25405,-0.25968 -3.84431,0.025 -4.07942,0.73033 -0.28904,0.86713 -1.00601,0.87308 -2.86991,0.0238 -1.36654,-0.62263 -3.1308,-0.7732 -3.92059,-0.3346 -1.1361,0.63093 -1.47068,-0.0699 -1.60219,-3.35617 l -0.16621,-4.15364 1.26708,2.87428 c 1.1827,2.68284 1.30409,2.7328 1.8226,0.75 0.30553,-1.16832 1.03352,-2.12425 1.61775,-2.12425 0.58422,0 0.80101,0.68073 0.48174,1.51273 -0.67334,1.7547 1.43921,4.73141 2.77288,3.90716 0.49665,-0.30695 0.63296,-0.99503 0.3029,-1.52907 -0.35813,-0.57948 0.35038,-0.73243 1.7572,-0.37934 1.29651,0.3254 3.47171,0.12254 4.83379,-0.45081 l 2.47649,-1.04245 -2.46829,0.24089 c -2.083,0.20329 -2.50574,-0.22522 -2.70823,-2.74519 -0.13197,-1.64234 -0.70874,-3.14234 -1.28171,-3.33333 -0.57297,-0.19099 -1.04177,-0.83476 -1.04177,-1.43059 0,-0.59583 0.27857,-0.80476 0.61905,-0.46429 0.34047,0.34048 1.27262,-0.0345 2.07143,-0.83333 1.86263,-1.86263 3.73811,-1.84581 5.30952,0.0476 1.05684,1.27342 0.811,1.5048 -1.62756,1.5318 -2.72633,0.0302 -2.77488,0.10563 -0.95448,1.48306 1.27998,0.96852 2.30847,1.12714 3.092,0.47687 1.43638,-1.19208 2.5374,-0.27873 1.84358,1.52934 -0.27976,0.72905 0.39666,1.81006 1.50316,2.40224 2.88353,1.54322 4.15485,1.33261 4.06435,-0.67331 -0.0502,-1.11289 -0.26764,-1.27973 -0.59724,-0.45826 -0.39596,0.98682 -0.84683,1.01908 -1.91005,0.13669 -1.79352,-1.48849 -0.8636,-3.01782 1.36827,-2.25022 1.37644,0.47339 1.32037,0.25117 -0.28203,-1.11783 -1.1,-0.93978 -1.325,-1.38932 -0.5,-0.99898 0.825,0.39035 0.3357,-0.50536 -1.08734,-1.99045 -1.42303,-1.48509 -3.22303,-2.82695 -4,-2.9819 -3.25382,-0.64893 -6.6799,-2.54012 -7.23842,-3.99559 -0.32919,-0.85786 -1.22408,-1.3197 -1.98864,-1.02631 -0.79783,0.30616 -2.73124,-0.99404 -4.53785,-3.05165 -3.33264,-3.79565 -3.76773,-5.01427 -2.14775,-6.01548 0.55,-0.33992 1,0.0284 1,0.81854 0,0.79011 0.59546,1.93076 1.32325,2.53477 1.0574,0.87757 1.23817,0.51851 0.89976,-1.78723 -0.23292,-1.58698 0.0523,-3.71357 0.63377,-4.72575 0.86133,-1.49929 1.01889,-1.116 0.85024,2.06828 -0.12684,2.3948 0.27711,4.0731 1.04298,4.33333 0.89318,0.30349 1.25,-1.04556 1.25,-4.72599 0,-4.85966 -0.12496,-5.11107 -2.21123,-4.44891 -2.14015,0.67926 -2.15881,0.62517 -0.58042,-1.68261 0.89695,-1.31144 2.117,-2.27193 2.71123,-2.13443 0.59423,0.1375 1.08042,-0.2 1.08042,-0.75 0,-0.55 0.51642,-1 1.1476,-1 0.82839,0 0.96504,2.59716 0.49127,9.33711 -0.73356,10.43574 -0.4243,11.10792 6.40782,13.92733 4.81747,1.98802 8.94985,7.08602 8.96696,11.06229 0.008,1.7453 0.285,4.18577 0.61664,5.42327 0.5002,1.86649 0.19959,2.2532 -1.76366,2.2688 -2.90803,0.0231 -14.3918,5.91048 -23.54616,12.07142 -6.7706,4.55665 -15.59418,8.2474 -22.33153,9.3409 -2.7108,0.43997 -4.46859,1.76983 -7.71211,5.83462 -2.31058,2.89562 -6.26152,7.22851 -8.77986,9.62865 -5.69986,5.43231 -12.52403,14.25019 -15.39361,19.89093 -1.19902,2.35693 -2.60764,4.02105 -3.13025,3.69806 -0.52565,-0.32487 -0.68193,0.11185 -0.34978,0.97742 0.61365,1.59915 -1.16479,4.5392 -2.74577,4.5392 -0.48266,0 -0.87161,-0.5625 -0.86434,-1.25 z m 7.98678,-11.75 c 0.5887,-1.1 0.84537,-2 0.57037,-2 -0.275,0 -0.98167,0.9 -1.57037,2 -0.5887,1.1 -0.84537,2 -0.57037,2 0.275,0 0.98167,-0.9 1.57037,-2 z m -28.50708,-3.98855 c 0.35034,-0.56686 -0.0511,-0.7345 -0.94098,-0.39301 -1.73242,0.66479 -2.04939,1.38156 -0.61096,1.38156 0.51754,0 1.21591,-0.44485 1.55194,-0.98855 z m 5.94821,-3.54325 c 1.06762,-0.80751 1.51762,-1.45389 1,-1.4364 -0.51762,0.0175 -1.81464,0.6925 -2.88226,1.5 -1.06762,0.80751 -1.51762,1.45389 -1,1.4364 0.51762,-0.0175 1.81464,-0.6925 2.88226,-1.5 z m 8.1263,-5.5773 c 0.37335,-0.6041 -0.50159,-0.32492 -1.94431,0.62038 -1.44271,0.94531 -2.62312,1.90782 -2.62312,2.13891 0,0.72338 3.85397,-1.6049 4.56743,-2.75929 z m 23.56013,0.3591 c 1.24387,-1.58606 1.2085,-1.62143 -0.37756,-0.37756 -0.9625,0.75485 -1.75,1.54235 -1.75,1.75 0,0.82304 0.82119,0.29331 2.12756,-1.37244 z m 8.44092,-9.5 c 1.03315,-1.2375 1.27306,-1.72267 0.53313,-1.07814 -0.73993,0.64452 -1.96549,0.93387 -2.72347,0.64301 -0.81852,-0.3141 -1.37814,0.1237 -1.37814,1.07814 0,2.24687 1.36047,2.00173 3.56848,-0.64301 z m 1.43149,-18.44098 c 2e-5,-0.65504 -0.44997,-1.4691 -0.99997,-1.80902 -0.55,-0.33992 -1,-0.20427 -1,0.30144 0,0.5057 -1.12382,2.5755 -2.49737,4.59955 l -2.49737,3.68008 3.49734,-2.79054 c 1.92354,-1.53479 3.49735,-3.32647 3.49737,-3.98151 z m 1.12412,3.42431 c -0.98762,-0.98026 -1.10248,-0.8654 -0.5598,0.5598 0.37553,0.98622 0.93469,1.54122 1.24258,1.23333 0.30789,-0.30789 6.4e-4,-1.11479 -0.68278,-1.79313 z m 49.87591,-21.12634 c 0,-0.21616 -0.69837,-0.661 -1.55194,-0.98855 -0.88992,-0.34149 -1.29132,-0.17385 -0.94098,0.39301 0.58726,0.95021 2.49292,1.40545 2.49292,0.59554 z m -40,11.95203 c 0,-0.79254 0.40803,-1.69316 0.90674,-2.00138 0.49871,-0.30822 0.67122,0.34022 0.38337,1.44098 -0.61061,2.33499 -1.29011,2.63015 -1.29011,0.5604 z m 4.5,-0.55902 c 0.33992,-0.55 1.04148,-1 1.55902,-1 0.51754,0 0.94098,0.45 0.94098,1 0,0.55 -0.70156,1 -1.55902,1 -0.85746,0 -1.2809,-0.45 -0.94098,-1 z m 9.05887,-5.5318 c -1.06762,-0.80751 -1.46022,-1.4682 -0.87244,-1.4682 0.58777,0 1.62888,0.675 2.31357,1.5 1.5572,1.87632 1.06734,1.86551 -1.44113,-0.0318 z m 14.59025,-8.13485 c -0.74298,-0.80571 -1.14461,-1.67119 -0.8925,-1.9233 0.25211,-0.25211 1.03663,0.23837 1.74338,1.08995 1.66916,2.01122 0.91574,2.74912 -0.85088,0.83335 z m 11.85088,-5.89237 c 0,-0.85746 0.45734,-1.27636 1.01631,-0.9309 0.55897,0.34546 0.75742,1.04702 0.44098,1.55902 -0.85723,1.38704 -1.45729,1.12841 -1.45729,-0.62812 z m -10,-1.32295 c 0,-0.55 0.45,-1.27811 1,-1.61803 0.55,-0.33992 1,-0.16803 1,0.38197 0,0.55 -0.45,1.27811 -1,1.61803 -0.55,0.33992 -1,0.16803 -1,-0.38197 z m -38.45729,-14.04893 c -0.31644,-0.512 -0.11799,-1.21355 0.44098,-1.55902 1.19337,-0.73754 3.01631,0.19857 3.01631,1.54894 0,1.2168 -2.70662,1.22469 -3.45729,0.0101 z m 30.45729,-17.03771 c 0,-0.53274 0.675,-0.7096 1.5,-0.39302 0.825,0.31659 1.5,0.75246 1.5,0.96862 0,0.21616 -0.675,0.39301 -1.5,0.39301 -0.825,0 -1.5,-0.43588 -1.5,-0.96861 z m -8.75623,-1.69575 c -1.38263,-0.55742 -0.71702,-2.33564 0.87426,-2.33564 0.55,0 0.67463,0.52647 0.27694,1.16994 -0.49057,0.79376 -0.1713,0.95821 0.99292,0.51145 1.01928,-0.39113 1.46793,-0.25712 1.10503,0.33006 -0.6551,1.05997 -1.27156,1.12148 -3.24915,0.32419 z m 8.33899,-1.98057 c -0.88714,-2.31185 -0.695,-10.16767 0.26317,-10.75985 0.46526,-0.28755 0.77756,1.50208 0.69399,3.97695 -0.12095,3.58199 0.16542,4.43912 1.40407,4.20244 0.89576,-0.17116 1.8184,-1.77764 2.17437,-3.78596 l 0.61836,-3.48865 0.13164,3.31574 c 0.14896,3.75211 -1.12432,6.68477 -3.25782,7.50347 -0.79476,0.30498 -1.70726,-0.12888 -2.02778,-0.96414 z m -6.22562,-3.85507 c 0.825,-0.825 1.74302,-1.5 2.04005,-1.5 0.29702,0 0.28102,0.675 -0.0356,1.5 -0.31659,0.825 -1.23461,1.5 -2.04005,1.5 -1.27011,0 -1.26539,-0.19904 0.0356,-1.5 z m -0.15714,-3.7 c -1.89766,-1.89766 -1.43751,-3.67487 0.8,-3.08975 1.10692,0.28947 2,1.36402 2,2.40638 0,2.15931 -1.06431,2.41906 -2.8,0.68337 z m 2.53121,-5.88016 c 0.35361,-1.3522 0.8069,-1.8055 1.05655,-1.05655 0.24048,0.72144 -0.0382,1.78716 -0.61931,2.36826 -0.74207,0.74207 -0.87221,0.35164 -0.43724,-1.31171 z m 2.26879,-0.47886 c 0,-0.85746 0.45,-1.2809 1,-0.94098 0.55,0.33992 1,1.04148 1,1.55902 0,0.51754 -0.45,0.94098 -1,0.94098 -0.55,0 -1,-0.70156 -1,-1.55902 z m -5,-0.61224 c 0,-0.64419 -0.7875,-2.09894 -1.75,-3.23277 -1.70064,-2.00336 -1.69359,-2.01968 0.25,-0.57874 3.32985,2.4687 4.59123,4.98277 2.5,4.98277 -0.55,0 -1,-0.52707 -1,-1.17126 z"
     id="path4148"
     inkscape:connector-curvature="0" />
</svg>
