<?xml version="1.0" encoding="UTF-8" standalone="no"?>
<!-- Created with Inkscape (http://www.inkscape.org/) -->

<svg
   xmlns:dc="http://purl.org/dc/elements/1.1/"
   xmlns:cc="http://creativecommons.org/ns#"
   xmlns:rdf="http://www.w3.org/1999/02/22-rdf-syntax-ns#"
   xmlns:svg="http://www.w3.org/2000/svg"
   xmlns="http://www.w3.org/2000/svg"
   xmlns:sodipodi="http://sodipodi.sourceforge.net/DTD/sodipodi-0.dtd"
   xmlns:inkscape="http://www.inkscape.org/namespaces/inkscape"
   id="svg2"
   version="1.1"
   inkscape:version="0.91 r13725"
   width="267"
   height="189"
   viewBox="0 0 267 189"
   sodipodi:docname="swallow-white.svg">
  <metadata
     id="metadata8">
    <rdf:RDF>
      <cc:Work
         rdf:about="">
        <dc:format>image/svg+xml</dc:format>
        <dc:type
           rdf:resource="http://purl.org/dc/dcmitype/StillImage" />
        <dc:title></dc:title>
      </cc:Work>
    </rdf:RDF>
  </metadata>
  <defs
     id="defs6" />
  <sodipodi:namedview
     pagecolor="#ffffff"
     bordercolor="#666666"
     borderopacity="1"
     objecttolerance="10"
     gridtolerance="10"
     guidetolerance="10"
     inkscape:pageopacity="0"
     inkscape:pageshadow="2"
     inkscape:window-width="1920"
     inkscape:window-height="1103"
     id="namedview4"
     showgrid="false"
     inkscape:zoom="1.2486772"
     inkscape:cx="-286.46822"
     inkscape:cy="80.084733"
     inkscape:window-x="0"
     inkscape:window-y="27"
     inkscape:window-maximized="1"
     inkscape:current-layer="svg2" />
  <path
     style="fill:#ffffff"
     d="m 124.82678,182.95339 c 0.023,-2.17626 8.04613,-15.83136 8.96728,-15.26205 0.48472,0.29957 1.20693,0.0178 1.60491,-0.62615 0.45192,-0.73122 0.29014,-0.90292 -0.4309,-0.45729 -0.63498,0.39244 -1.15451,0.26352 -1.15451,-0.28648 0,-1.00132 1.91336,-2.57393 3.16667,-2.60272 0.36666,-0.008 1.04166,-0.42496 1.5,-0.92564 0.48416,-0.52889 0.30957,-0.60891 -0.41667,-0.19098 -2.22822,1.28228 -1.33531,-0.60337 2.86185,-6.04366 5.02253,-6.51014 4.70107,-8.24477 -1.45102,-7.83 -3.07764,0.20748 -6.24849,1.42913 -10.09349,3.88875 -5.95963,3.81232 -7.11617,4.28326 -5.97185,2.43171 0.44563,-0.72104 0.27393,-0.88282 -0.45729,-0.4309 -0.64395,0.39798 -0.93568,1.10408 -0.64828,1.5691 0.70492,1.14058 -6.4005,5.44865 -8.70082,5.27538 -1.00778,-0.0759 -1.5948,0.2463 -1.30448,0.71604 0.29031,0.46974 -1.16246,1.87765 -3.22839,3.12869 -2.06593,1.25105 -4.73308,2.89288 -5.92701,3.64851 -1.91086,1.20939 -2.1419,1.17716 -1.92963,-0.26918 0.31022,-2.11365 2.49849,-3.45947 4.42377,-2.72067 0.92525,0.35505 1.2466,0.15976 0.83445,-0.50711 -0.37948,-0.61402 0.95932,-2.06613 3.08596,-3.34712 6.13899,-3.69786 19.84628,-13.69286 25.67426,-18.72101 5.19066,-4.4783 13.96936,-16.21775 17.95216,-24.00682 l 1.8702,-3.65749 -4.84282,-4.26146 c -2.66354,-2.3438 -5.32393,-4.26145 -5.91198,-4.26145 -0.58805,0 -3.05656,-2.025 -5.48559,-4.5 -2.42903,-2.475 -4.95049,-4.5 -5.60325,-4.5 -0.65276,0 -2.24656,-1.117226 -3.54179,-2.482723 -1.29523,-1.365498 -3.07966,-2.490498 -3.96541,-2.5 -0.88575,-0.0095 -3.27447,-1.146504 -5.30826,-2.526671 -2.03378,-1.380167 -5.47158,-3.414313 -7.63954,-4.520324 -2.16796,-1.106011 -3.94175,-2.39719 -3.94175,-2.869286 0,-0.472095 -1.36525,-1.423861 -3.0339,-2.115035 -1.66864,-0.691174 -3.81469,-2.249303 -4.76899,-3.462509 -0.95431,-1.213205 -2.851559,-2.800324 -4.216109,-3.526929 -2.6893,-1.432019 -8.7835,-6.127974 -12.69955,-9.785784 -3.57419,-3.338494 -11.44719,-7.446619 -22.53145,-11.756887 -5.55184,-2.158912 -9.75,-4.364618 -9.75,-5.122638 0,-0.732168 0.65335,-1.331214 1.45188,-1.331214 2.17313,0 16.34015,5.040635 31.54812,11.224842 7.425,3.01932 21.374999,8.269219 30.999999,11.666441 9.625,3.397222 18.4,6.576448 19.5,7.064946 1.1,0.488498 3.35,1.179351 5,1.53523 3.899,0.840952 21.39908,9.107236 23.7123,11.200671 1.43705,1.300515 1.79164,1.342266 1.80781,0.212858 0.0111,-0.772744 0.41543,-4.136539 0.89862,-7.475101 0.53907,-3.724748 0.50139,-7.781729 -0.0975,-10.5 C 165.0217,63.812336 162.58654,48.006696 162.33162,43.20339 161.7613,32.457476 160.61183,21.803 159.78945,19.639975 158.6639,16.679547 158.21135,9.4722666 159.09549,8.5881266 c 0.36836,-0.36836 1.46811,-0.0648 2.4439,0.67453 1.51266,1.1461304 1.58992,1.1376604 0.52417,-0.0575 -1.92191,-2.15527 -1.54054,-5.00178 0.67012,-5.00178 2.95502,0 12.35678,11.2961824 17.40305,20.9096934 2.48005,4.724671 6.08028,13.126782 8.00051,18.671359 1.92023,5.544577 4.43295,11.837913 5.58383,13.985191 1.56335,2.916883 2.06257,5.551572 1.97418,10.418951 -0.09,4.957444 -0.29153,5.797659 -0.84291,3.514809 -0.59454,-2.461541 -0.86174,-2.685899 -1.48868,-1.25 -0.42024,0.9625 -0.51621,2.395927 -0.21327,3.185392 0.30295,0.789466 0.19926,1.576966 -0.23043,1.75 -1.39833,0.563112 -7.08357,9.042531 -6.59395,9.834749 0.26183,0.423659 -0.19635,1.028319 -1.01819,1.343689 -0.82184,0.31537 -1.49426,0.194727 -1.49426,-0.268097 0,-2.057303 4.14389,-9.936971 5.49936,-10.457114 0.92993,-0.356848 1.50064,-1.878179 1.50064,-4.000245 0,-2.168383 0.56769,-3.642241 1.54776,-4.018329 1.1967,-0.459216 1.39479,-1.447467 0.87334,-4.356988 -0.37093,-2.069682 -1.23199,-4.438057 -1.91345,-5.263057 -0.68147,-0.825 -1.53766,-2.755904 -1.90266,-4.290898 -0.36499,-1.534994 -1.03239,-2.562988 -1.48311,-2.284431 -0.45071,0.278558 -0.85602,-0.778678 -0.90068,-2.349412 -0.10896,-3.832357 -5.21464,-15.623908 -10.80923,-24.963907 -5.05056,-8.431753 -11.59645,-16.5328054 -10.75309,-13.307805 0.60992,2.332351 -1.23126,3.796237 -2.96497,2.357384 -0.90459,-0.75074 -0.77226,2.382819 0.51366,12.16391 0.95268,7.246337 1.97175,16.775159 2.26459,21.175159 0.49896,7.49678 0.94987,10.501894 3.56363,23.75 0.74566,3.77946 0.69593,7.839992 -0.17753,14.496575 -1.19712,9.123074 -1.18191,9.280012 1.13852,11.75 1.29352,1.376884 1.88912,2.503425 1.32356,2.503425 -0.94071,0 -2.121,-1.077431 -8.49423,-7.753944 -1.18335,-1.239669 -2.35919,-2.046306 -2.61297,-1.792525 -0.25379,0.253781 -1.19306,-0.359585 -2.08728,-1.363034 -1.88895,-2.119676 -13.02787,-6.811073 -18.12586,-7.634096 -1.925,-0.310774 -4.49895,-1.217095 -5.71989,-2.014047 -1.85946,-1.213734 -2.13267,-1.221713 -1.68271,-0.04914 0.29544,0.769925 3.31939,2.880428 6.71989,4.690008 3.40049,1.809579 6.77735,3.881137 7.50414,4.603461 0.72678,0.722324 1.65443,1.313317 2.06144,1.313317 1.4906,0 5.11622,4.127172 5.08545,5.788955 -0.0245,1.322699 -0.47241,1.121123 -1.97355,-0.888141 -1.06802,-1.429552 -5.15509,-4.579552 -9.08236,-7 -3.92728,-2.420448 -8.32668,-5.350002 -9.77646,-6.51012 -3.75761,-3.006863 -7.75118,-4.920982 -18.33618,-8.788534 -5.11488,-1.868874 -13.90933,-5.208823 -19.543239,-7.422109 -8.61206,-3.383257 -10.08159,-3.721695 -9.22708,-2.125022 0.55901,1.044524 2.01461,2.433366 3.23465,3.086315 1.22005,0.652949 3.4945,2.463415 5.05435,4.023258 1.55984,1.559843 3.91018,3.105661 5.22298,3.435152 1.312789,0.329491 2.638099,1.390538 2.945119,2.357882 0.30703,0.967344 2.32165,2.553999 4.47694,3.525899 2.15529,0.971901 4.15063,2.371481 4.4341,3.110178 0.28346,0.738698 2.21633,2.053784 4.29525,2.922415 2.07893,0.86863 4.68601,2.424492 5.79351,3.45747 1.10751,1.032979 3.36365,2.204538 5.01365,2.603465 1.65,0.398928 4.07386,1.782286 5.38636,3.07413 1.3125,1.291844 2.8875,2.370883 3.5,2.397866 0.6125,0.02698 2.91364,1.823776 5.11364,3.992871 2.2,2.1691 4.40148,3.94703 4.89219,3.95095 0.4907,0.004 3.2359,2.00942 6.10044,4.45667 3.61274,3.08646 5.52753,4.13029 6.25045,3.40737 0.72292,-0.72292 0.61745,-1.85626 -0.34428,-3.69956 -0.76256,-1.46155 -1.38925,-3.4183 -1.39264,-4.34834 -0.003,-0.93004 -0.40184,-1.93553 -0.88545,-2.23442 -1.22642,-0.75797 -2.12248,-4.5746 -1.07401,-4.5746 0.47271,0 1.58311,1.6875 2.46756,3.75 0.88445,2.0625 2.25557,5.02397 3.04692,6.58104 1.61662,3.18089 1.87021,5.66896 0.57778,5.66896 -0.47357,0 -1.93607,2.1375 -3.25,4.75 -1.31393,2.6125 -2.93223,5.43919 -3.59623,6.28152 -0.94576,1.19978 -0.92797,2.34397 0.0821,5.28213 0.70917,2.06283 1.81494,4.27614 2.45727,4.91847 2.05426,2.05426 1.40916,3.97555 -1.08212,3.22287 -1.2375,-0.37388 -2.64233,-1.04404 -3.12186,-1.48924 -1.20398,-1.11782 -3.76763,-4.6e-4 -2.96789,1.29354 0.37885,0.61299 0.16843,0.75286 -0.50574,0.3362 -0.63496,-0.39244 -1.15449,-0.18882 -1.15449,0.45248 0,0.6413 -0.63272,0.92321 -1.40604,0.62646 -0.77333,-0.29675 -2.23583,0.4426 -3.25,1.64301 l -1.84396,2.18256 2.5,-2 2.5,-2 -1.88365,2.22642 c -1.036,1.22453 -2.1872,2.03881 -2.55821,1.80951 -0.37102,-0.2293 -1.99837,0.66484 -3.61636,1.98698 l -2.94178,2.40388 3.5,-1.04434 c 1.925,-0.5744 4.35787,-1.30381 5.40637,-1.62092 1.19293,-0.3608 1.66288,-0.1826 1.25575,0.47616 -0.7358,1.19054 2.03292,2.56882 3.42812,1.70654 0.50037,-0.30925 0.90976,-0.0155 0.90976,0.65285 0,0.66831 2.19522,-1.07447 4.87827,-3.87284 3.65489,-3.81198 5.84924,-5.25065 8.75,-5.73674 4.96763,-0.83244 15.66311,-4.93658 21.12173,-8.10496 4.11307,-2.38737 5.50614,-4.38254 3.05998,-4.38254 -2.11893,0 -8.93809,-8.35792 -8.42832,-10.33019 0.26017,-1.0066 -0.16621,-3.64201 -0.94752,-5.85648 -0.78131,-2.21446 -1.21841,-4.35337 -0.97134,-4.75314 0.24707,-0.39977 -0.20598,-0.72686 -1.00679,-0.72686 -0.8008,0 -1.45601,0.6 -1.45601,1.33334 0,0.73333 -0.36033,1.33333 -0.80073,1.33333 -0.44041,0 -1.7784,2.01232 -2.97331,4.47181 -1.19492,2.4595 -3.53459,6.35202 -5.19927,8.65004 -1.66468,2.29803 -3.02669,4.81227 -3.02669,5.58721 0,0.77493 -0.43281,1.14149 -0.96179,0.81456 -1.25542,-0.7759 0.37392,-5.0641 3.46298,-9.11407 3.20429,-4.20104 8.42652,-15.13607 7.63659,-15.99056 -0.35078,-0.37944 0.44295,-0.1266 1.76385,0.56189 2.09578,1.09237 2.32264,1.04594 1.78139,-0.36455 -0.92047,-2.398687 1.06565,-1.958571 3.88516,0.86094 1.3625,1.3625 2.7033,2.45375 2.97955,2.425 1.66786,-0.17358 2.47424,0.8769 1.87396,2.4412 -0.51856,1.35135 -1.35019,1.65324 -3.30723,1.20054 -1.43795,-0.33262 -2.12002,-0.25359 -1.51571,0.17561 0.60431,0.42921 1.13839,1.45538 1.18686,2.28038 0.2726,4.64056 1.13309,7.39877 3.1661,10.14856 1.97588,2.67251 2.7238,3.0035 5.69671,2.52107 1.88221,-0.30544 5.92044,-1.69908 8.97384,-3.09697 4.86042,-2.22517 5.37034,-2.72292 4.09552,-3.99774 -0.85651,-0.85651 -2.36836,-1.21755 -3.67148,-0.87678 -1.67904,0.43908 -1.89229,0.78976 -0.88083,1.44851 0.83572,0.5443 -0.0462,0.7101 -2.35958,0.4436 -2.25405,-0.25968 -3.84431,0.025 -4.07942,0.73033 -0.28904,0.86713 -1.00601,0.87308 -2.86991,0.0238 -1.36654,-0.62263 -3.1308,-0.7732 -3.92059,-0.3346 -1.1361,0.63093 -1.47068,-0.0699 -1.60219,-3.35617 l -0.16621,-4.15364 1.26708,2.87428 c 1.1827,2.68284 1.30409,2.7328 1.8226,0.75 0.30553,-1.16832 1.03352,-2.12425 1.61775,-2.12425 0.58422,0 0.80101,0.68073 0.48174,1.51273 -0.67334,1.7547 1.43921,4.73141 2.77288,3.90716 0.49665,-0.30695 0.63296,-0.99503 0.3029,-1.52907 -0.35813,-0.57948 0.35038,-0.73243 1.7572,-0.37934 1.29651,0.3254 3.47171,0.12254 4.83379,-0.45081 l 2.47649,-1.04245 -2.46829,0.24089 c -2.083,0.20329 -2.50574,-0.22522 -2.70823,-2.74519 -0.13197,-1.64234 -0.70874,-3.14234 -1.28171,-3.33333 -0.57297,-0.19099 -1.04177,-0.83476 -1.04177,-1.43059 0,-0.59583 0.27857,-0.80476 0.61905,-0.46429 0.34047,0.34048 1.27262,-0.0345 2.07143,-0.83333 1.86263,-1.86263 3.73811,-1.84581 5.30952,0.0476 1.05684,1.27342 0.811,1.5048 -1.62756,1.5318 -2.72633,0.0302 -2.77488,0.10563 -0.95448,1.48306 1.27998,0.96852 2.30847,1.12714 3.092,0.47687 1.43638,-1.19208 2.5374,-0.27873 1.84358,1.52934 -0.27976,0.72905 0.39666,1.81006 1.50316,2.40224 2.88353,1.54322 4.15485,1.33261 4.06435,-0.67331 -0.0502,-1.11289 -0.26764,-1.27973 -0.59724,-0.45826 -0.39596,0.98682 -0.84683,1.01908 -1.91005,0.13669 -1.79352,-1.48849 -0.8636,-3.01782 1.36827,-2.25022 1.37644,0.47339 1.32037,0.25117 -0.28203,-1.11783 -1.1,-0.93978 -1.325,-1.38932 -0.5,-0.99898 0.825,0.39035 0.3357,-0.50536 -1.08734,-1.99045 -1.42303,-1.48509 -3.22303,-2.82695 -4,-2.9819 -3.25382,-0.64893 -6.6799,-2.540115 -7.23842,-3.995587 -0.32919,-0.85786 -1.22408,-1.3197 -1.98864,-1.026312 -0.79783,0.306157 -2.73124,-0.994038 -4.53785,-3.051655 -3.33264,-3.79565 -3.76773,-5.01427 -2.14775,-6.015476 0.55,-0.339919 1,0.02842 1,0.818538 0,0.790115 0.59546,1.930762 1.32325,2.534771 1.0574,0.877569 1.23817,0.518511 0.89976,-1.787224 -0.23292,-1.586983 0.0523,-3.713573 0.63377,-4.725754 0.86133,-1.499287 1.01889,-1.116001 0.85024,2.068277 -0.12684,2.394798 0.27711,4.073104 1.04298,4.333333 0.89318,0.303486 1.25,-1.045565 1.25,-4.725995 0,-4.859656 -0.12496,-5.111062 -2.21123,-4.448904 -2.14015,0.679258 -2.15881,0.625171 -0.58042,-1.682613 0.89695,-1.311436 2.117,-2.271929 2.71123,-2.134429 0.59423,0.1375 1.08042,-0.2 1.08042,-0.75 0,-0.55 0.51642,-1 1.1476,-1 0.82839,0 0.96504,2.597156 0.49127,9.337108 -0.73356,10.435742 -0.4243,11.107924 6.40782,13.927332 4.81747,1.98802 8.94985,7.08602 8.96696,11.06229 0.008,1.7453 0.285,4.18577 0.61664,5.42327 0.5002,1.86649 0.19959,2.2532 -1.76366,2.2688 -2.90803,0.0231 -14.3918,5.91048 -23.54616,12.07142 -6.7706,4.55665 -15.59418,8.2474 -22.33153,9.3409 -2.7108,0.43997 -4.46859,1.76983 -7.71211,5.83462 -2.31058,2.89562 -6.26152,7.22851 -8.77986,9.62865 -5.69986,5.43231 -12.52403,14.25019 -15.39361,19.89093 -1.19902,2.35693 -2.60764,4.02105 -3.13025,3.69806 -0.52565,-0.32487 -0.68193,0.11185 -0.34978,0.97742 0.61365,1.59915 -1.16479,4.5392 -2.74577,4.5392 -0.48266,0 -0.87161,-0.5625 -0.86434,-1.25 z m 7.98678,-11.75 c 0.5887,-1.1 0.84537,-2 0.57037,-2 -0.275,0 -0.98167,0.9 -1.57037,2 -0.5887,1.1 -0.84537,2 -0.57037,2 0.275,0 0.98167,-0.9 1.57037,-2 z m -28.50708,-3.98855 c 0.35034,-0.56686 -0.0511,-0.7345 -0.94098,-0.39301 -1.73242,0.66479 -2.04939,1.38156 -0.61096,1.38156 0.51754,0 1.21591,-0.44485 1.55194,-0.98855 z m 5.94821,-3.54325 c 1.06762,-0.80751 1.51762,-1.45389 1,-1.4364 -0.51762,0.0175 -1.81464,0.6925 -2.88226,1.5 -1.06762,0.80751 -1.51762,1.45389 -1,1.4364 0.51762,-0.0175 1.81464,-0.6925 2.88226,-1.5 z m 8.1263,-5.5773 c 0.37335,-0.6041 -0.50159,-0.32492 -1.94431,0.62038 -1.44271,0.94531 -2.62312,1.90782 -2.62312,2.13891 0,0.72338 3.85397,-1.6049 4.56743,-2.75929 z m 23.56013,0.3591 c 1.24387,-1.58606 1.2085,-1.62143 -0.37756,-0.37756 -0.9625,0.75485 -1.75,1.54235 -1.75,1.75 0,0.82304 0.82119,0.29331 2.12756,-1.37244 z m 8.44092,-9.5 c 1.03315,-1.2375 1.27306,-1.72267 0.53313,-1.07814 -0.73993,0.64452 -1.96549,0.93387 -2.72347,0.64301 -0.81852,-0.3141 -1.37814,0.1237 -1.37814,1.07814 0,2.24687 1.36047,2.00173 3.56848,-0.64301 z m 1.43149,-18.44098 c 2e-5,-0.65504 -0.44997,-1.4691 -0.99997,-1.80902 -0.55,-0.33992 -1,-0.20427 -1,0.30144 0,0.5057 -1.12382,2.5755 -2.49737,4.59955 l -2.49737,3.68008 3.49734,-2.79054 c 1.92354,-1.53479 3.49735,-3.32647 3.49737,-3.98151 z m 1.12412,3.42431 c -0.98762,-0.98026 -1.10248,-0.8654 -0.5598,0.5598 0.37553,0.98622 0.93469,1.54122 1.24258,1.23333 0.30789,-0.30789 6.4e-4,-1.11479 -0.68278,-1.79313 z m 49.87591,-21.12634 c 0,-0.21616 -0.69837,-0.661 -1.55194,-0.98855 -0.88992,-0.34149 -1.29132,-0.17385 -0.94098,0.39301 0.58726,0.95021 2.49292,1.40545 2.49292,0.59554 z m -40,11.95203 c 0,-0.79254 0.40803,-1.69316 0.90674,-2.00138 0.49871,-0.30822 0.67122,0.34022 0.38337,1.44098 -0.61061,2.33499 -1.29011,2.63015 -1.29011,0.5604 z m 4.5,-0.55902 c 0.33992,-0.55 1.04148,-1 1.55902,-1 0.51754,0 0.94098,0.45 0.94098,1 0,0.55 -0.70156,1 -1.55902,1 -0.85746,0 -1.2809,-0.45 -0.94098,-1 z m 9.05887,-5.5318 c -1.06762,-0.80751 -1.46022,-1.4682 -0.87244,-1.4682 0.58777,0 1.62888,0.675 2.31357,1.5 1.5572,1.87632 1.06734,1.86551 -1.44113,-0.0318 z m 14.59025,-8.13485 c -0.74298,-0.80571 -1.14461,-1.67119 -0.8925,-1.9233 0.25211,-0.25211 1.03663,0.23837 1.74338,1.08995 1.66916,2.01122 0.91574,2.74912 -0.85088,0.83335 z m 11.85088,-5.89237 c 0,-0.85746 0.45734,-1.27636 1.01631,-0.9309 0.55897,0.34546 0.75742,1.04702 0.44098,1.55902 -0.85723,1.38704 -1.45729,1.12841 -1.45729,-0.62812 z m -10,-1.32295 c 0,-0.55 0.45,-1.27811 1,-1.61803 0.55,-0.33992 1,-0.16803 1,0.38197 0,0.55 -0.45,1.27811 -1,1.61803 -0.55,0.33992 -1,0.16803 -1,-0.38197 z M 154.35627,89.272488 c -0.31644,-0.511996 -0.11799,-1.213553 0.44098,-1.559017 1.19337,-0.737546 3.01631,0.198568 3.01631,1.548936 0,1.216805 -2.70662,1.224697 -3.45729,0.01008 z m 30.45729,-17.037713 c 0,-0.532739 0.675,-0.709594 1.5,-0.393011 0.825,0.316582 1.5,0.752459 1.5,0.968615 0,0.216156 -0.675,0.393011 -1.5,0.393011 -0.825,0 -1.5,-0.435877 -1.5,-0.968615 z m -8.75623,-1.695743 c -1.38263,-0.557421 -0.71702,-2.335642 0.87426,-2.335642 0.55,0 0.67463,0.526472 0.27694,1.169939 -0.49057,0.793758 -0.1713,0.95821 0.99292,0.511454 1.01928,-0.391134 1.46793,-0.257126 1.10503,0.330061 -0.6551,1.059968 -1.27156,1.121476 -3.24915,0.324188 z m 8.33899,-1.980572 c -0.88714,-2.311848 -0.695,-10.16767 0.26317,-10.75985 0.46526,-0.287548 0.77756,1.502079 0.69399,3.976948 -0.12095,3.581995 0.16542,4.439121 1.40407,4.202444 0.89576,-0.171159 1.8184,-1.77764 2.17437,-3.785965 l 0.61836,-3.488647 0.13164,3.315741 c 0.14896,3.752109 -1.12432,6.684768 -3.25782,7.503468 -0.79476,0.304978 -1.70726,-0.128884 -2.02778,-0.964139 z m -6.22562,-3.85507 c 0.825,-0.825 1.74302,-1.5 2.04005,-1.5 0.29702,0 0.28102,0.675 -0.0356,1.5 -0.31659,0.825 -1.23461,1.5 -2.04005,1.5 -1.27011,0 -1.26539,-0.199043 0.0356,-1.5 z m -0.15714,-3.7 c -1.89766,-1.897663 -1.43751,-3.67487 0.8,-3.089749 1.10692,0.289465 2,1.364016 2,2.40638 0,2.159307 -1.06431,2.419062 -2.8,0.683369 z m 2.53121,-5.880159 c 0.35361,-1.352204 0.8069,-1.805497 1.05655,-1.056551 0.24048,0.721441 -0.0382,1.787158 -0.61931,2.36826 -0.74207,0.742068 -0.87221,0.351636 -0.43724,-1.311709 z m 2.26879,-0.478858 c 0,-0.857459 0.45,-1.280902 1,-0.940983 0.55,0.339919 1,1.041476 1,1.559017 0,0.517541 -0.45,0.940983 -1,0.940983 -0.55,0 -1,-0.701558 -1,-1.559017 z m -5,-0.612242 c 0,-0.644193 -0.7875,-2.098938 -1.75,-3.232767 -1.70064,-2.003362 -1.69359,-2.019686 0.25,-0.578741 3.32985,2.468693 4.59123,4.982767 2.5,4.982767 -0.55,0 -1,-0.527067 -1,-1.171259 z"
     id="path4148"
     inkscape:connector-curvature="0" />
</svg>
